<svg xmlns="http://www.w3.org/2000/svg" xmlns:xlink="http://www.w3.org/1999/xlink" width="50" zoomAndPan="magnify" viewBox="0 0 37.5 37.499999" height="50" preserveAspectRatio="xMidYMid meet" version="1.0"><defs><clipPath id="a1d6529f6a"><path d="M 24 10 L 29.695312 10 L 29.695312 16 L 24 16 Z M 24 10 " clip-rule="nonzero"/></clipPath><clipPath id="67644d3dba"><path d="M 7.945312 2.285156 L 27 2.285156 L 27 35.285156 L 7.945312 35.285156 Z M 7.945312 2.285156 " clip-rule="nonzero"/></clipPath></defs><path fill="#000000" d="M 16.230469 27.035156 C 16.230469 28.167969 17.164062 29.097656 18.300781 29.097656 L 26.589844 29.097656 C 27.726562 29.097656 28.660156 28.167969 28.660156 27.035156 L 28.660156 18.785156 C 28.660156 17.652344 27.726562 16.722656 26.589844 16.722656 L 18.300781 16.722656 C 17.164062 16.722656 16.230469 17.652344 16.230469 18.785156 Z M 16.230469 27.035156 " fill-opacity="1" fill-rule="nonzero"/><path fill="#000000" d="M 21.4375 15.691406 C 22.550781 15.691406 23.480469 14.789062 23.480469 13.65625 L 23.480469 10.511719 C 23.480469 9.402344 22.574219 8.476562 21.4375 8.476562 L 18.277344 8.476562 C 17.164062 8.476562 16.230469 9.378906 16.230469 10.511719 L 16.230469 13.683594 C 16.230469 14.789062 17.136719 15.71875 18.277344 15.71875 L 21.4375 15.71875 Z M 21.4375 15.691406 " fill-opacity="1" fill-rule="nonzero"/><g clip-path="url(#a1d6529f6a)"><path fill="#000000" d="M 24.515625 11.980469 L 24.515625 14.25 C 24.515625 15.046875 25.164062 15.691406 25.96875 15.691406 L 28.246094 15.691406 C 29.046875 15.691406 29.695312 15.046875 29.695312 14.25 L 29.695312 11.980469 C 29.695312 11.183594 29.046875 10.539062 28.246094 10.539062 L 25.96875 10.539062 C 25.164062 10.539062 24.515625 11.183594 24.515625 11.980469 Z M 24.515625 11.980469 " fill-opacity="1" fill-rule="nonzero"/></g><path fill="#000000" d="M 11.46875 16.722656 C 10.664062 16.722656 10.015625 17.367188 10.015625 18.167969 L 10.015625 20.433594 C 10.015625 21.234375 10.664062 21.878906 11.46875 21.878906 L 13.746094 21.878906 C 14.546875 21.878906 15.195312 21.234375 15.195312 20.433594 L 15.195312 18.167969 C 15.195312 17.367188 14.546875 16.722656 13.746094 16.722656 Z M 11.46875 16.722656 " fill-opacity="1" fill-rule="nonzero"/><g clip-path="url(#67644d3dba)"><path fill="#000000" d="M 9.992188 35.28125 L 24.515625 35.28125 C 25.65625 35.28125 26.5625 34.355469 26.5625 33.21875 L 26.5625 30.128906 L 8.980469 30.128906 L 8.980469 7.445312 L 25.550781 7.445312 L 25.550781 9.53125 C 25.683594 9.507812 26.589844 9.507812 26.589844 9.507812 L 26.589844 4.351562 C 26.589844 3.21875 25.65625 2.289062 24.542969 2.289062 L 9.992188 2.289062 C 8.851562 2.289062 7.945312 3.21875 7.945312 4.351562 L 7.945312 33.21875 C 7.945312 34.355469 8.851562 35.28125 9.992188 35.28125 Z M 15.195312 32.1875 L 19.339844 32.1875 C 19.625 32.1875 19.855469 32.421875 19.855469 32.703125 C 19.855469 32.988281 19.625 33.21875 19.339844 33.21875 L 15.195312 33.21875 C 14.910156 33.21875 14.675781 32.988281 14.675781 32.703125 C 14.675781 32.421875 14.910156 32.1875 15.195312 32.1875 Z M 19.339844 4.351562 C 19.625 4.351562 19.855469 4.582031 19.855469 4.867188 C 19.855469 5.152344 19.625 5.382812 19.339844 5.382812 C 19.054688 5.382812 18.820312 5.152344 18.820312 4.867188 C 18.820312 4.582031 19.054688 4.351562 19.339844 4.351562 Z M 17.265625 4.351562 C 17.550781 4.351562 17.785156 4.582031 17.785156 4.867188 C 17.785156 5.152344 17.550781 5.382812 17.265625 5.382812 C 16.980469 5.382812 16.75 5.152344 16.75 4.867188 C 16.75 4.582031 16.980469 4.351562 17.265625 4.351562 Z M 15.195312 4.351562 C 15.480469 4.351562 15.714844 4.582031 15.714844 4.867188 C 15.714844 5.152344 15.480469 5.382812 15.195312 5.382812 C 14.910156 5.382812 14.675781 5.152344 14.675781 4.867188 C 14.675781 4.582031 14.910156 4.351562 15.195312 4.351562 Z M 15.195312 4.351562 " fill-opacity="1" fill-rule="nonzero"/></g></svg>